<svg width="266" height="80" viewBox="0 0 266 80" fill="none" xmlns="http://www.w3.org/2000/svg">
<path d="M63.0157 62.7188V20.9523H70.0058V56.1637H88.4527V62.7188H63.0157ZM102.126 63.5889C99.8632 63.5889 97.9489 63.1635 96.3827 62.3127C94.8164 61.4426 93.6272 60.292 92.8151 58.8612C92.0223 57.4303 91.6259 55.8544 91.6259 54.1334C91.6259 52.6252 91.8773 51.2716 92.38 50.0728C92.8828 48.8546 93.6562 47.8104 94.7004 46.9403C95.7446 46.0508 97.0981 45.3257 98.761 44.765C100.018 44.3589 101.487 43.9915 103.17 43.6628C104.871 43.3341 106.708 43.0344 108.681 42.7637C110.672 42.4736 112.751 42.1642 114.917 41.8355L112.422 43.2567C112.441 41.0911 111.958 39.4958 110.972 38.471C109.986 37.4462 108.323 36.9338 105.983 36.9338C104.572 36.9338 103.208 37.2625 101.894 37.9199C100.579 38.5773 99.6602 39.7085 99.1381 41.3134L92.7571 39.3121C93.5306 36.663 95.0001 34.5361 97.1658 32.9311C99.3508 31.3262 102.29 30.5238 105.983 30.5238C108.768 30.5238 111.214 30.9782 113.321 31.887C115.448 32.7958 117.024 34.2847 118.049 36.3537C118.61 37.4558 118.948 38.587 119.064 39.7472C119.18 40.888 119.238 42.1352 119.238 43.4888V62.7188H113.118V55.9317L114.133 57.0339C112.722 59.2962 111.069 60.9591 109.174 62.0226C107.298 63.0668 104.949 63.5889 102.126 63.5889ZM103.518 58.02C105.103 58.02 106.457 57.7396 107.578 57.1789C108.7 56.6181 109.589 55.9317 110.247 55.1196C110.924 54.3074 111.378 53.5437 111.61 52.8282C111.977 51.9387 112.18 50.9236 112.219 49.7827C112.277 48.6226 112.306 47.6848 112.306 46.9693L114.452 47.6074C112.345 47.9361 110.537 48.2262 109.029 48.4775C107.52 48.7289 106.225 48.9706 105.142 49.2027C104.059 49.4154 103.102 49.6571 102.271 49.9278C101.458 50.2178 100.772 50.5562 100.211 50.9429C99.6505 51.3297 99.2154 51.7744 98.9061 52.2771C98.616 52.7799 98.471 53.3696 98.471 54.0464C98.471 54.8199 98.6644 55.5063 99.0511 56.1057C99.4378 56.6858 99.9986 57.1499 100.733 57.4979C101.487 57.846 102.416 58.02 103.518 58.02ZM138.536 63.6179C136.216 63.6179 134.302 63.2312 132.793 62.4577C131.285 61.6843 130.086 60.6981 129.197 59.4993C128.307 58.3004 127.65 57.0242 127.224 55.6707C126.799 54.3171 126.519 53.0409 126.383 51.8421C126.267 50.6239 126.209 49.6377 126.209 48.8836V31.3939H133.286V46.4762C133.286 47.4431 133.354 48.5356 133.489 49.7537C133.625 50.9526 133.934 52.1128 134.418 53.2343C134.92 54.3365 135.655 55.2453 136.622 55.9607C137.608 56.6761 138.933 57.0339 140.595 57.0339C141.485 57.0339 142.365 56.8888 143.235 56.5988C144.105 56.3088 144.888 55.8157 145.584 55.1196C146.3 54.4041 146.87 53.4276 147.296 52.1901C147.721 50.9526 147.934 49.3864 147.934 47.4914L152.081 49.2607C152.081 51.9291 151.559 54.3461 150.515 56.5118C149.49 58.6775 147.972 60.4081 145.961 61.7036C143.95 62.9798 141.475 63.6179 138.536 63.6179ZM148.775 62.7188V53.0022H147.934V31.3939H154.953V62.7188H148.775ZM184.768 62.7188V47.6364C184.768 46.6503 184.7 45.5578 184.565 44.3589C184.43 43.1601 184.111 42.0095 183.608 40.9074C183.124 39.7859 182.39 38.8674 181.403 38.1519C180.437 37.4365 179.122 37.0788 177.459 37.0788C176.569 37.0788 175.69 37.2238 174.819 37.5138C173.949 37.8039 173.156 38.3066 172.441 39.0221C171.745 39.7182 171.184 40.685 170.759 41.9225C170.333 43.1407 170.121 44.707 170.121 46.6213L165.973 44.852C165.973 42.1836 166.485 39.7665 167.51 37.6009C168.554 35.4352 170.082 33.7143 172.093 32.4381C174.104 31.1425 176.579 30.4948 179.518 30.4948C181.838 30.4948 183.753 30.8815 185.261 31.6549C186.769 32.4284 187.968 33.4145 188.858 34.6134C189.747 35.8122 190.404 37.0884 190.83 38.442C191.255 39.7955 191.526 41.0814 191.642 42.2996C191.777 43.4984 191.845 44.4749 191.845 45.229V62.7188H184.768ZM163.044 62.7188V31.3939H169.28V41.1104H170.121V62.7188H163.044ZM212.507 63.5889C209.278 63.5889 206.523 62.8734 204.241 61.4426C201.959 59.9923 200.209 58.02 198.991 55.5256C197.792 53.0313 197.183 50.2081 197.164 47.0563C197.183 43.8465 197.812 41.0041 199.049 38.529C200.306 36.0346 202.085 34.0816 204.386 32.6701C206.687 31.2392 209.423 30.5238 212.594 30.5238C216.152 30.5238 219.159 31.4229 221.615 33.2212C224.09 35.0001 225.704 37.4365 226.458 40.5303L219.497 42.4156C218.956 40.7333 218.057 39.4281 216.8 38.5C215.543 37.5525 214.112 37.0788 212.507 37.0788C210.69 37.0788 209.191 37.5138 208.011 38.384C206.832 39.2348 205.962 40.4143 205.401 41.9225C204.84 43.4308 204.56 45.142 204.56 47.0563C204.56 50.0341 205.227 52.4415 206.561 54.2784C207.895 56.1154 209.877 57.0339 212.507 57.0339C214.363 57.0339 215.823 56.6085 216.887 55.7577C217.97 54.9069 218.782 53.679 219.323 52.0741L226.458 53.6693C225.491 56.8598 223.8 59.3156 221.382 61.0365C218.965 62.7381 216.007 63.5889 212.507 63.5889ZM253.937 62.7188V47.6364C253.937 46.6503 253.869 45.5578 253.734 44.3589C253.598 43.1601 253.279 42.0095 252.777 40.9074C252.293 39.7859 251.558 38.8674 250.572 38.1519C249.606 37.4365 248.291 37.0788 246.628 37.0788C245.738 37.0788 244.858 37.2238 243.988 37.5138C243.118 37.8039 242.325 38.3066 241.61 39.0221C240.914 39.7182 240.353 40.685 239.928 41.9225C239.502 43.1407 239.29 44.707 239.29 46.6213L235.142 44.852C235.142 42.1836 235.654 39.7665 236.679 37.6009C237.723 35.4352 239.251 33.7143 241.262 32.4381C243.273 31.1425 245.748 30.4948 248.687 30.4948C251.007 30.4948 252.922 30.8815 254.43 31.6549C255.938 32.4284 257.137 33.4145 258.027 34.6134C258.916 35.8122 259.573 37.0884 259.999 38.442C260.424 39.7955 260.695 41.0814 260.811 42.2996C260.946 43.4984 261.014 44.4749 261.014 45.229V62.7188H253.937ZM232.213 62.7188V20.9523H238.448V42.9377H239.29V62.7188H232.213Z" fill="white"/>
<path d="M46.8643 35.9688V62.5869H20.8408V55.9678L26.5205 58.1514V35.9688H46.8643ZM26.5205 26.2217V35.9688H20.8408V55.9678L0.496094 48.1484V16.2188L26.5205 26.2217Z" fill="white"/>
</svg>
