<svg width="266" height="80" viewBox="0 0 266 80" fill="none" xmlns="http://www.w3.org/2000/svg">
<path d="M63.0157 62.3594V20.5929H70.0058V55.8044H88.4527V62.3594H63.0157ZM102.126 63.2295C99.8632 63.2295 97.9489 62.8041 96.3827 61.9533C94.8164 61.0832 93.6272 59.9327 92.8151 58.5018C92.0223 57.0709 91.6259 55.495 91.6259 53.774C91.6259 52.2658 91.8773 50.9123 92.38 49.7134C92.8828 48.4952 93.6562 47.4511 94.7004 46.5809C95.7446 45.6915 97.0981 44.9663 98.761 44.4056C100.018 43.9995 101.487 43.6321 103.17 43.3034C104.871 42.9747 106.708 42.675 108.681 42.4043C110.672 42.1142 112.751 41.8049 114.917 41.4761L112.422 42.8974C112.441 40.7317 111.958 39.1364 110.972 38.1116C109.986 37.0868 108.323 36.5744 105.983 36.5744C104.572 36.5744 103.208 36.9031 101.894 37.5605C100.579 38.218 99.6602 39.3491 99.1381 40.9541L92.7571 38.9528C93.5306 36.3037 95.0001 34.1767 97.1658 32.5718C99.3508 30.9668 102.29 30.1644 105.983 30.1644C108.768 30.1644 111.214 30.6188 113.321 31.5276C115.448 32.4364 117.024 33.9253 118.049 35.9943C118.61 37.0965 118.948 38.2276 119.064 39.3878C119.18 40.5287 119.238 41.7759 119.238 43.1294V62.3594H113.118V55.5723L114.133 56.6745C112.722 58.9368 111.069 60.5998 109.174 61.6633C107.298 62.7074 104.949 63.2295 102.126 63.2295ZM103.518 57.6606C105.103 57.6606 106.457 57.3803 107.578 56.8195C108.7 56.2588 109.589 55.5723 110.247 54.7602C110.924 53.9481 111.378 53.1843 111.61 52.4688C111.977 51.5794 112.18 50.5642 112.219 49.4234C112.277 48.2632 112.306 47.3254 112.306 46.6099L114.452 47.248C112.345 47.5768 110.537 47.8668 109.029 48.1182C107.52 48.3695 106.225 48.6112 105.142 48.8433C104.059 49.056 103.102 49.2977 102.271 49.5684C101.458 49.8584 100.772 50.1968 100.211 50.5836C99.6505 50.9703 99.2154 51.415 98.9061 51.9178C98.616 52.4205 98.471 53.0103 98.471 53.687C98.471 54.4605 98.6644 55.1469 99.0511 55.7464C99.4378 56.3264 99.9986 56.7905 100.733 57.1386C101.487 57.4866 102.416 57.6606 103.518 57.6606ZM138.536 63.2585C136.216 63.2585 134.302 62.8718 132.793 62.0983C131.285 61.3249 130.086 60.3387 129.197 59.1399C128.307 57.941 127.65 56.6648 127.224 55.3113C126.799 53.9577 126.519 52.6815 126.383 51.4827C126.267 50.2645 126.209 49.2783 126.209 48.5242V31.0345H133.286V46.1169C133.286 47.0837 133.354 48.1762 133.489 49.3944C133.625 50.5932 133.934 51.7534 134.418 52.8749C134.92 53.9771 135.655 54.8859 136.622 55.6013C137.608 56.3168 138.933 56.6745 140.595 56.6745C141.485 56.6745 142.365 56.5295 143.235 56.2394C144.105 55.9494 144.888 55.4563 145.584 54.7602C146.3 54.0448 146.87 53.0683 147.296 51.8307C147.721 50.5932 147.934 49.027 147.934 47.132L152.081 48.9013C152.081 51.5697 151.559 53.9867 150.515 56.1524C149.49 58.3181 147.972 60.0487 145.961 61.3442C143.95 62.6204 141.475 63.2585 138.536 63.2585ZM148.775 62.3594V52.6429H147.934V31.0345H154.953V62.3594H148.775ZM184.768 62.3594V47.277C184.768 46.2909 184.7 45.1984 184.565 43.9995C184.43 42.8007 184.111 41.6502 183.608 40.548C183.124 39.4265 182.39 38.508 181.403 37.7926C180.437 37.0771 179.122 36.7194 177.459 36.7194C176.569 36.7194 175.69 36.8644 174.819 37.1545C173.949 37.4445 173.156 37.9473 172.441 38.6627C171.745 39.3588 171.184 40.3256 170.759 41.5632C170.333 42.7813 170.121 44.3476 170.121 46.2619L165.973 44.4926C165.973 41.8242 166.485 39.4072 167.51 37.2415C168.554 35.0758 170.082 33.3549 172.093 32.0787C174.104 30.7832 176.579 30.1354 179.518 30.1354C181.838 30.1354 183.753 30.5221 185.261 31.2956C186.769 32.069 187.968 33.0552 188.858 34.254C189.747 35.4529 190.404 36.7291 190.83 38.0826C191.255 39.4362 191.526 40.722 191.642 41.9402C191.777 43.1391 191.845 44.1156 191.845 44.8697V62.3594H184.768ZM163.044 62.3594V31.0345H169.28V40.751H170.121V62.3594H163.044ZM212.507 63.2295C209.278 63.2295 206.523 62.5141 204.241 61.0832C201.959 59.633 200.209 57.6606 198.991 55.1663C197.792 52.6719 197.183 49.8488 197.164 46.6969C197.183 43.4871 197.812 40.6447 199.049 38.1696C200.306 35.6752 202.085 33.7223 204.386 32.3107C206.687 30.8798 209.423 30.1644 212.594 30.1644C216.152 30.1644 219.159 31.0635 221.615 32.8618C224.09 34.6407 225.704 37.0771 226.458 40.1709L219.497 42.0562C218.956 40.374 218.057 39.0688 216.8 38.1406C215.543 37.1931 214.112 36.7194 212.507 36.7194C210.69 36.7194 209.191 37.1545 208.011 38.0246C206.832 38.8754 205.962 40.0549 205.401 41.5632C204.84 43.0714 204.56 44.7827 204.56 46.6969C204.56 49.6747 205.227 52.0821 206.561 53.9191C207.895 55.756 209.877 56.6745 212.507 56.6745C214.363 56.6745 215.823 56.2491 216.887 55.3983C217.97 54.5475 218.782 53.3196 219.323 51.7147L226.458 53.31C225.491 56.5005 223.8 58.9562 221.382 60.6771C218.965 62.3787 216.007 63.2295 212.507 63.2295ZM253.937 62.3594V47.277C253.937 46.2909 253.869 45.1984 253.734 43.9995C253.598 42.8007 253.279 41.6502 252.777 40.548C252.293 39.4265 251.558 38.508 250.572 37.7926C249.606 37.0771 248.291 36.7194 246.628 36.7194C245.738 36.7194 244.858 36.8644 243.988 37.1545C243.118 37.4445 242.325 37.9473 241.61 38.6627C240.914 39.3588 240.353 40.3256 239.928 41.5632C239.502 42.7813 239.29 44.3476 239.29 46.2619L235.142 44.4926C235.142 41.8242 235.654 39.4072 236.679 37.2415C237.723 35.0758 239.251 33.3549 241.262 32.0787C243.273 30.7832 245.748 30.1354 248.687 30.1354C251.007 30.1354 252.922 30.5221 254.43 31.2956C255.938 32.069 257.137 33.0552 258.027 34.254C258.916 35.4529 259.573 36.7291 259.999 38.0826C260.424 39.4362 260.695 40.722 260.811 41.9402C260.946 43.1391 261.014 44.1156 261.014 44.8697V62.3594H253.937ZM232.213 62.3594V20.5929H238.448V42.5783H239.29V62.3594H232.213Z" fill="black"/>
<path d="M46.8643 35.6133V62.2324H20.8408V55.6133L26.5205 57.7969V35.6133H46.8643ZM26.5205 25.8672V35.6133H20.8408V55.6133L0.496094 47.7939V15.8633L26.5205 25.8672Z" fill="black"/>
</svg>
